<?xml version="1.0" encoding="UTF-8"?>
<svg width="200px" height="200px" viewBox="0 0 200 200" version="1.1" xmlns="http://www.w3.org/2000/svg" xmlns:xlink="http://www.w3.org/1999/xlink">
    <g id="Page-1" stroke="none" stroke-width="1" fill="none" fill-rule="evenodd">
        <path d="M100,0 C44.771525,0 0,44.771525 0,100 C0,155.228475 44.771525,200 100,200 C155.228475,200 200,155.228475 200,100 C200,73.478351 189.464316,48.0429597 170.710678,29.2893219 C151.95704,10.535684 126.521649,0 100,0 Z M142.5,128.3 C146.377236,132.200375 146.377236,138.499625 142.5,142.4 C140.622334,144.293127 138.066375,145.357983 135.4,145.357983 C132.733625,145.357983 130.177666,144.293127 128.3,142.4 L100,114.1 L71.8,142.4 C69.922334,144.293127 67.3663754,145.357983 64.7,145.357983 C62.0336246,145.357983 59.477666,144.293127 57.6,142.4 C53.7227641,138.499625 53.7227641,132.200375 57.6,128.3 L85.9,100 L57.6,71.7 C53.7227641,67.7996255 53.7227641,61.5003745 57.6,57.6 C59.477666,55.7068735 62.0336246,54.6420168 64.7,54.6420168 C67.3663754,54.6420168 69.922334,55.7068735 71.8,57.6 L100,85.9 L128.2,57.6 C130.077666,55.7068735 132.633625,54.6420168 135.3,54.6420168 C137.966375,54.6420168 140.522334,55.7068735 142.4,57.6 C146.277236,61.5003745 146.277236,67.7996255 142.4,71.7 L114.2,100 L142.5,128.3 Z" id="Reset" fill="#000000" fill-rule="nonzero"></path>
    </g>
</svg>
