<?xml version="1.0" encoding="UTF-8"?>
<svg width="1200pt" height="1200pt" version="1.1" viewBox="0 0 1200 1200"
  xmlns="http://www.w3.org/2000/svg">
  <g fill="#cccfd6">
    <path
      d="m969.14 409.1v63.398 151.17 182.11 156.45c0 24.258 0.11719 48.516 0 72.773 0 3.3984-0.23438 6.9141-0.58594 10.312 0.58594-4.1016 1.1719-8.3203 1.6406-12.422-0.9375 6.9141-2.6953 13.477-5.2734 19.922 1.5234-3.75 3.1641-7.5 4.6875-11.25-2.6953 6.2109-5.9766 12.07-10.078 17.461 2.4609-3.1641 4.9219-6.3281 7.3828-9.4922-4.4531 5.7422-9.4922 10.781-15.234 15.234 3.1641-2.4609 6.3281-4.9219 9.4922-7.3828-5.3906 4.1016-11.25 7.3828-17.461 10.078 3.75-1.5234 7.5-3.1641 11.25-4.6875-6.4453 2.5781-13.008 4.3359-19.922 5.2734 4.1016-0.58594 8.3203-1.1719 12.422-1.6406-8.5547 0.9375-17.461 0.58594-26.016 0.58594h-48.398-163.01-197.58-169.92c-26.602 0-53.086 0.23437-79.688 0-3.5156 0-6.9141-0.23438-10.43-0.58594 4.1016 0.58594 8.3203 1.1719 12.422 1.6406-6.9141-0.9375-13.477-2.6953-19.922-5.2734 3.75 1.5234 7.5 3.1641 11.25 4.6875-6.2109-2.6953-12.07-5.9766-17.461-10.078 3.1641 2.4609 6.3281 4.9219 9.4922 7.3828-5.7422-4.4531-10.781-9.4922-15.234-15.234 2.4609 3.1641 4.9219 6.3281 7.3828 9.4922-4.1016-5.3906-7.3828-11.25-10.078-17.461 1.5234 3.75 3.1641 7.5 4.6875 11.25-2.5781-6.4453-4.3359-13.008-5.2734-19.922 0.58594 4.1016 1.1719 8.3203 1.6406 12.422-1.1719-10.195-0.58594-20.742-0.58594-31.055v-62.578-94.336-115.2-126.45-127.62-119.41-99.961-71.133-32.227c0-3.6328 0.23437-7.1484 0.58594-10.664-0.58594 4.1016-1.1719 8.3203-1.6406 12.422 0.9375-6.9141 2.6953-13.477 5.2734-19.922-1.5234 3.75-3.1641 7.5-4.6875 11.25 2.6953-6.2109 5.9766-12.07 10.078-17.461-2.4609 3.1641-4.9219 6.3281-7.3828 9.4922 4.4531-5.7422 9.4922-10.781 15.234-15.234-3.1641 2.4609-6.3281 4.9219-9.4922 7.3828 5.3906-4.1016 11.25-7.3828 17.461-10.078-3.75 1.5234-7.5 3.1641-11.25 4.6875 6.4453-2.5781 13.008-4.3359 19.922-5.2734-4.1016 0.58594-8.3203 1.1719-12.422 1.6406 16.172-1.875 32.93-0.58594 49.219-0.58594h102.42 125.16 109.45c17.812 0 35.625 0.46875 53.438 0h0.70312c-11.016-4.5703-22.148-9.1406-33.164-13.711 10.664 10.664 21.328 21.328 31.992 31.992l77.344 77.344c31.055 31.055 62.109 62.109 93.164 93.164 26.836 26.836 53.672 53.672 80.625 80.625 13.125 13.125 26.016 26.484 39.375 39.375 0.23437 0.23438 0.35156 0.35156 0.58594 0.58594 17.344 17.344 49.219 18.633 66.328 0 17.227-18.75 18.516-47.812 0-66.328-8.6719-8.6719-17.344-17.344-26.016-26.016-21.445-21.445-42.891-42.891-64.453-64.453-27.422-27.422-54.844-54.844-82.266-82.266-26.367-26.367-52.734-52.734-79.219-79.219l-56.367-56.367c-4.3359-4.3359-8.6719-8.7891-13.125-13.125-9.9609-9.8438-23.086-15.234-37.031-15.352-18.164-0.23437-36.211 0-54.375 0h-102.54-118.01-100.55-51.562c-24.258 0-49.805 6.4453-69.844 20.508-34.336 24.023-55.898 60.703-56.836 103.01-0.11719 7.2656 0 14.531 0 21.797v55.898 83.672 102.89 115.2 119.06 114.96 102.89 82.5 54.961c0 8.4375-0.46875 17.109 0.23438 25.547 1.7578 20.625 6.9141 40.781 18.047 58.477 10.781 17.109 25.195 31.523 42.422 42.188 19.57 12.07 42.891 17.93 65.742 17.93h36.328 76.523 103.48 116.48 117.42 104.53 78.398 38.906c20.977 0 40.078-4.9219 58.945-13.828 14.766-7.0312 28.594-18.164 38.672-31.055 12.422-15.82 22.734-33.164 26.602-53.32 3.1641-16.992 3.0469-32.93 3.0469-49.805v-69.375-100.78-116.72-117.19-101.72-71.836-26.016c0-24.492-21.562-48.047-46.875-46.875-25.195 1.1719-46.641 20.625-46.641 46.875z" />
    <path
      d="m1016 362.23h-109.69-173.44-39.961c15.586 15.586 31.289 31.289 46.875 46.875v-109.69-173.44-39.961c-26.719 11.016-53.32 22.148-80.039 33.164 10.664 10.664 21.328 21.328 31.992 31.992l77.344 77.344c31.055 31.055 62.109 62.109 93.164 93.164 26.836 26.836 53.672 53.672 80.625 80.625 13.125 13.125 26.016 26.484 39.375 39.375 0.23438 0.23437 0.35156 0.35156 0.58594 0.58594 17.344 17.344 49.219 18.633 66.328 0 17.227-18.75 18.516-47.812 0-66.328-10.664-10.664-21.328-21.328-31.992-31.992l-77.344-77.344c-31.055-31.055-62.109-62.109-93.164-93.164-26.836-26.836-53.672-53.672-80.625-80.625-13.125-13.125-25.898-26.602-39.375-39.375-0.23438-0.23438-0.35156-0.35156-0.58594-0.58594-13.359-13.359-33.984-16.992-51.211-9.7266-16.992 7.1484-28.828 24.023-28.828 42.891v109.69 173.44 39.961c0 25.312 21.445 46.875 46.875 46.875h109.69 173.44 39.961c24.492 0 48.047-21.562 46.875-46.875-1.1719-25.43-20.625-46.875-46.875-46.875z" />
    <path
      d="m376.29 700.08h44.648 106.52 129.49 111.45c18.164 0 36.445 0.35156 54.609 0h0.82031c24.492 0 48.047-21.562 46.875-46.875-1.1719-25.43-20.625-46.875-46.875-46.875h-44.648-106.52-129.49-111.45c-18.164 0-36.445-0.35156-54.609 0h-0.82031c-24.492 0-48.047 21.562-46.875 46.875 1.1719 25.43 20.625 46.875 46.875 46.875z" />
    <path
      d="m376.29 928.71h44.648 106.52 129.49 111.45c18.164 0 36.445 0.35156 54.609 0h0.82031c24.492 0 48.047-21.562 46.875-46.875-1.1719-25.43-20.625-46.875-46.875-46.875h-44.648-106.52-129.49-111.45c-18.164 0-36.445-0.35156-54.609 0h-0.82031c-24.492 0-48.047 21.562-46.875 46.875 1.1719 25.312 20.625 46.875 46.875 46.875z" />
  </g>
</svg>