<?xml version="1.0" encoding="UTF-8"?>
<svg width="700pt" height="700pt" version="1.1" viewBox="0 0 700 700" xmlns="http://www.w3.org/2000/svg">
 <path d="m560 94.746-197.61 197.61c-4.4453 4.293-10.824 5.9219-16.785 4.2891-5.9609-1.6328-10.617-6.2891-12.25-12.25-1.6328-5.9609-0.003907-12.34 4.2891-16.785l197.61-197.61h-132.75c-6.2539 0-12.031-3.3359-15.156-8.75s-3.125-12.086 0-17.5 8.9023-8.75 15.156-8.75h175c4.6406 0 9.0938 1.8438 12.375 5.125s5.125 7.7344 5.125 12.375v175c0 6.2539-3.3359 12.031-8.75 15.156s-12.086 3.125-17.5 0-8.75-8.9023-8.75-15.156zm-315 10.254h-87.535c-28.98 0-52.465 23.414-52.465 52.359v315.32c0 28.875 23.766 52.359 52.57 52.359h314.82c13.949 0.019532 27.332-5.5156 37.195-15.379 9.8594-9.8594 15.395-23.242 15.375-37.191v-87.43c0-6.2539-3.3359-12.031-8.75-15.156-5.4141-3.125-12.086-3.125-17.5 0-5.4141 3.125-8.75 8.9023-8.75 15.156v87.43c0.019531 4.6641-1.8281 9.1445-5.125 12.445-3.3008 3.2969-7.7773 5.1445-12.445 5.125h-314.82c-4.6172-0.019531-9.0469-1.8477-12.332-5.0938-3.2852-3.2422-5.1641-7.6484-5.2383-12.266v-315.32c0-9.5898 7.8047-17.359 17.465-17.359h87.535c6.2539 0 12.031-3.3359 15.156-8.75s3.125-12.086 0-17.5-8.9023-8.75-15.156-8.75z"/>
</svg>
