
<svg width="490px" height="491px" viewBox="0 0 490 491" version="1.1" xmlns="http://www.w3.org/2000/svg" xmlns:xlink="http://www.w3.org/1999/xlink">
    <g id="Page-1" stroke="none" stroke-width="1" fill="none" fill-rule="evenodd">
        <g id="noun-external-1609302" transform="translate(0.000000, 0.000000)" fill="#000000" fill-rule="nonzero">
            <path d="M455,59.7459 L257.39,257.3559 C252.9447,261.6489 246.566,263.2778 240.605,261.645 C234.6441,260.0122 229.988,255.3559 228.355,249.395 C226.7222,243.4341 228.351093,237.055 232.6441,232.61 L430.2541,35 L297.5041,35 C291.2502,35 285.4731,31.6641 282.3481,26.25 C279.2231,20.8359 279.2231,14.164 282.3481,8.75 C285.4731,3.336 291.2504,0 297.5041,0 L472.5041,0 C477.1447,0 481.5979,1.8438 484.8791,5.125 C488.1603,8.4062 490.0041,12.8594 490.0041,17.5 L490.0041,192.5 C490.0041,198.7539 486.6682,204.531 481.2541,207.656 C475.84,210.781 469.1681,210.781 463.7541,207.656 C458.3401,204.531 455.0041,198.7537 455.0041,192.5 L455,59.7459 Z M140,69.9991 L52.465,69.9991 C23.485,69.9991 0,93.4139 0,122.3589 L0,437.6789 C0,466.5539 23.766,490.037952 52.57,490.037952 L367.39,490.037952 C381.339,490.057432 394.722,484.5223 404.585,474.6589 C414.4444,464.7995 419.98,451.4169 419.960054,437.4679 L419.960054,350.0379 C419.960054,343.784 416.6241,338.0069 411.21,334.8819 C405.7959,331.7569 399.124,331.7569 393.71,334.8819 C388.2959,338.0069 384.96,343.7842 384.96,350.0379 L384.96,437.4679 C384.979531,442.132 383.1319,446.6124 379.835,449.9129 C376.5342,453.2098 372.0577,455.0574 367.39,455.0379 L52.57,455.0379 C47.9528,455.018369 43.5231,453.1902 40.238,449.9441 C36.9528,446.7019 35.0739,442.2957 34.9997,437.6781 L34.9997,122.3581 C34.9997,112.7683 42.8044,104.9991 52.4647,104.9991 L139.9997,104.9991 C146.2536,104.9991 152.0307,101.6632 155.1557,96.2491 C158.2807,90.835 158.2807,84.1631 155.1557,78.7491 C152.0307,73.3351 146.2534,69.9991 139.9997,69.9991 L140,69.9991 Z" id="Shape"></path>
        </g>
    </g>
</svg>
