<svg width="30" height="30" viewBox="0 0 220 200"  xmlns="http://www.w3.org/2000/svg">
    <path
      d="M215.758557,200 C212.958582,200 208.025995,197.980669 207.550714,195.126516 C200.391938,152.296989 171.32215,135.751636 110.779146,135.751636 C50.2509189,135.756561 20.792892,152.301915 13.6193403,195.126516 C13.0874189,198.300807 10.4688938,200.448193 7.29460333,199.913809 C4.11785026,199.38435 -0.489672977,196.372591 0.0422484663,193.198301 C8.21561546,144.404359 44.4379882,120.68214 110.780413,120.68214 C177.140075,120.68214 213.362448,144.404359 221.516114,193.203226 C222.048036,196.382442 219.900649,199.389275 216.726359,199.918734 C216.401295,199.977837 216.078695,200 215.758557,200 Z M110.825039,113.338669 C79.5697286,113.338669 54.1384659,87.9197193 54.1384659,56.6742597 C54.1384659,25.4238749 79.567266,0 110.825039,0 C142.087736,0 167.521462,25.4214123 167.521462,56.6742597 C167.521462,87.9197193 142.087736,113.338669 110.825039,113.338669 Z M111.470576,14.7755956 C88.00292,14.7755956 68.9140615,33.8621262 68.9140615,57.3204709 C68.9140615,80.7764876 88.00292,99.8606903 111.470576,99.8606903 C134.942888,99.8606903 154.038731,80.7764876 154.038731,57.3204709 C154.038731,33.8644541 134.942888,14.7755956 111.470576,14.7755956 Z"
      id="Person"
      fill="#fff"
      fillRule="nonzero"
    />
</svg>
