<svg xmlns="http://www.w3.org/2000/svg" height="512" viewBox="0 -64 512 512" width="512"><path d="M453.332 384H58.668C26.305 384 0 357.695 0 325.332V58.668C0 26.305 26.305 0 58.668 0h394.664C485.695 0 512 26.305 512 58.668v266.664C512 357.695 485.695 384 453.332 384zM58.668 32C43.968 32 32 43.969 32 58.668v266.664C32 340.032 43.969 352 58.668 352h394.664c14.7 0 26.668-11.969 26.668-26.668V58.668C480 43.968 468.031 32 453.332 32zm0 0" data-original="#000000" class="active-path" data-old_color="#000000" fill="#5F7D95"/><path d="M106.668 149.332C83.137 149.332 64 130.199 64 106.668S83.137 64 106.668 64s42.664 19.137 42.664 42.668-19.133 42.664-42.664 42.664zm0-53.332C100.778 96 96 100.777 96 106.668c0 5.887 4.777 10.664 10.668 10.664 5.887 0 10.664-4.777 10.664-10.664 0-5.89-4.777-10.668-10.664-10.668zM16 341.332c-4.098 0-8.191-1.555-11.309-4.691-6.25-6.25-6.25-16.383 0-22.637L122.88 195.82c14.594-14.593 38.336-14.593 52.906 0l26.883 26.88 101.547-101.548c14.59-14.593 38.336-14.593 52.906 0L507.31 271.34c6.25 6.25 6.25 16.383 0 22.633-6.254 6.25-16.387 6.25-22.637 0L334.484 143.785c-2.09-2.09-5.59-2.09-7.656 0L213.973 256.641c-6.25 6.25-16.383 6.25-22.633 0l-38.188-38.188c-2.71-2.71-4.949-2.71-7.66 0L27.31 336.641c-3.118 3.136-7.211 4.691-11.309 4.691zm0 0" data-original="#000000" class="active-path" data-old_color="#000000" fill="#5F7D95"/></svg>