<svg height="500mm" viewBox="0 0 500 500" width="500mm" xmlns="http://www.w3.org/2000/svg"><g fill="#00624a" stroke="#00624a" stroke-width=".00024" transform="matrix(19.558533 0 0 19.558533 13.536907 13.932544)"><path d="m21.15 5.89a11 11 0 1 0 1.85 6.11 11 11 0 0 0 -1.85-6.11zm-1.67 11.11a9 9 0 1 1 1.52-5 9 9 0 0 1 -1.52 5zm-4.48-6v-2a3 3 0 0 0 -6 0v2a1 1 0 0 0 -1 1v4a1 1 0 0 0 1 1h6a1 1 0 0 0 1-1v-4a1 1 0 0 0 -1-1zm-1.5 0h-3v-2a1.5 1.5 0 0 1 3 0z"/><path d="m19.29 15.06a.93.93 0 0 0 .18-.26.78.78 0 0 0 .07-.31.78.78 0 0 0 -.07-.3.93.93 0 0 0 -.18-.26.76.76 0 0 0 -.28-.15.8.8 0 0 0 -.31 0 .7.7 0 0 0 -.37.11.77.77 0 0 0 -.26.28h-2.07v.7h2.05a.69.69 0 0 0 .27.29.73.73 0 0 0 .38.11.8.8 0 0 0 .31 0 .76.76 0 0 0 .28-.21zm-.29-.57a.27.27 0 0 1 -.28.28.22.22 0 0 1 -.11 0 .28.28 0 0 1 -.15-.15.22.22 0 0 1 0-.11.27.27 0 0 1 .28-.28.2.2 0 0 1 .11 0 .21.21 0 0 1 .1.06.18.18 0 0 1 .06.09.2.2 0 0 1 0 .11zm.26-3.94 1.32-1.32q.12.39.21.78l-1.25 1.24h-1.75v.75h-.7v-1.4zm-9.46 8.45h.69v1.14l-.55.56c-.26-.06-.52-.13-.77-.21l.63-.63zm2.56-.61v-1.39h-.7v1.43a.8.8 0 0 0 -.29.26.7.7 0 0 0 -.11.37.75.75 0 0 0 .75.75.87.87 0 0 0 .28 0 .82.82 0 0 0 .25-.16.78.78 0 0 0 .16-.24.67.67 0 0 0 .06-.28.74.74 0 0 0 -.4-.65zm-.15.83a.28.28 0 0 1 -.48-.2.27.27 0 0 1 .28-.28.28.28 0 0 1 .2.48zm8.79-7.22a1.49 1.49 0 0 1 0 .21l-1 1h-4v-.7h3.7l1.3-1.26zm-6.16-3.91 3-3a5.8 5.8 0 0 1 .52.47l-3.36 3.37a2.65 2.65 0 0 0 -.16-.84zm-9.54 5.66a.82.82 0 0 0 -.31 0 .76.76 0 0 0 -.28.15.93.93 0 0 0 -.18.26.78.78 0 0 0 -.07.3.78.78 0 0 0 .07.31.93.93 0 0 0 .18.26.76.76 0 0 0 .28.15.82.82 0 0 0 .31 0 .74.74 0 0 0 .65-.4h2.05v-.7h-2a.76.76 0 0 0 -.3-.29.79.79 0 0 0 -.4-.04zm.18.92a.27.27 0 0 1 -.19.08h-.1a.21.21 0 0 1 -.1-.06.18.18 0 0 1 -.09-.11.2.2 0 0 1 0-.11.43.43 0 0 1 0-.11l.06-.09.09-.06h.11a.28.28 0 0 1 .2.48zm11.61 1.76 1.6 1.57c-.16.17-.33.32-.5.48l-1.38-1.37h-1.16v1.54l1 1c-.21.12-.43.22-.65.33l-1-.98v-1.87h-1v1.44h-.7v-1.57h1.7a.92.92 0 0 0 .89-.57zm-5.09-12.33a.75.75 0 0 0 -.53.22.71.71 0 0 0 -.22.52.81.81 0 0 0 .12.38.78.78 0 0 0 .29.28v.5h.34a2.2 2.2 0 0 1 .36 0v-.5a.78.78 0 0 0 .29-.28.7.7 0 0 0 .11-.38.79.79 0 0 0 -.24-.52.82.82 0 0 0 -.52-.22zm.23.9a.29.29 0 0 1 -.12.1.22.22 0 0 1 -.16 0 .24.24 0 0 1 -.22-.22.22.22 0 0 1 0-.16.29.29 0 0 1 .1-.12.3.3 0 0 1 .17-.04h.11l.09.06.06.09a.43.43 0 0 1 0 .11.3.3 0 0 1 -.03.18zm-3.23 12h.05v1.94l-1.05 1.06c-.22-.11-.42-.23-.63-.35l1-1v-1.13l-.81.82h-1.63v.28a3.58 3.58 0 0 1 -.29-.26c-.15-.14-.27-.31-.41-.47v-.25h2l1-1a.56.56 0 0 0 0 .08 1 1 0 0 0 .77.28zm-4.82-3.79-1.18-1.16c0-.33 0-.65 0-1l1.44 1.43h3.56v.7zm1-4.8a.73.73 0 0 0 .2.35.72.72 0 0 0 1 0 .75.75 0 0 0 0-1 .75.75 0 0 0 -.72-.19l-.9-.93c-.14.18-.27.36-.39.55l.86.81a.71.71 0 0 0 -.01.41zm.56-.41a.29.29 0 0 1 .38 0 .28.28 0 0 1 .08.2.27.27 0 0 1 -.08.19.29.29 0 0 1 -.38 0 .35.35 0 0 1 -.06-.19.36.36 0 0 1 .06-.2zm2.35 8.41h-3.66l-.16.16c-.12-.21-.24-.41-.34-.63l.23-.23h3.84v.29a1.16 1.16 0 0 0 .09.41zm5.91 2.84 1 1.05v.15c-.23.08-.46.17-.7.23v-.08l-.86-.86zm3.67-11.25a.68.68 0 0 0 -.35.17.75.75 0 0 0 0 1 .75.75 0 0 0 1 0 .79.79 0 0 0 .18-.72l1.15-1.15c-.12-.19-.24-.38-.37-.56l-1.23 1.26a.7.7 0 0 0 -.38 0zm.46.68a.22.22 0 0 1 0 .11.41.41 0 0 1 -.05.09.24.24 0 0 1 -.09.06.31.31 0 0 1 -.22 0 .24.24 0 0 1 -.09-.06.29.29 0 0 1 0-.38.32.32 0 0 1 .19-.07.31.31 0 0 1 .18.07.27.27 0 0 1 .07.08.38.38 0 0 1 .01.08zm1.36 7.17.42.42c-.12.21-.23.43-.36.63l-.55-.58zm-14.77-4.85-1.39-1.37c.07-.24.15-.49.24-.73l1.43 1.42h1.44v-.65h.7v1.33zm9.62-6.71h-.7v-1.13c.24 0 .47.1.7.16zm.56 1.51a.53.53 0 0 0 .28.07.72.72 0 0 0 .32-.08.67.67 0 0 0 .26-.21.73.73 0 0 0 .14-.31.74.74 0 0 0 0-.33l.7-.7-.65-.35-.54.54a.74.74 0 0 0 -.39 0 .63.63 0 0 0 -.33.2.75.75 0 0 0 0 1 .58.58 0 0 0 .21.19zm.1-.8a.29.29 0 0 1 .38 0 .24.24 0 0 1 .06.09.31.31 0 0 1 0 .22.24.24 0 0 1 -.06.09.29.29 0 0 1 -.38 0 .29.29 0 0 1 0-.4zm-5.64-1.6 1.46 1.47v1.38a3 3 0 0 0 -.7.43v-1.53l-1.47-1.48a7.46 7.46 0 0 1 .71-.27zm-1.24 2.11-1-1c.2-.13.41-.24.63-.36l.9.9zm-1.93-.36 3 3a3.36 3.36 0 0 0 -.19.85l-3.32-3.38c.16-.16.32-.32.51-.47z" opacity=".5"/><path d="m0 0h24v24h-24z" fill="none"/></g><path d="m211.92458 302.21564c-.27191-.21388-.59564-.6957-.71941-1.0707-.16205-.49104-.19275-2.2853-.10971-6.41197.0634-3.15158.16219-8.2045.2195-11.22871.0573-3.0242.15394-5.88925.21474-6.36675.07-.54995.28903-1.05925.59746-1.38938.26781-.28666.71868-.5721 1.00193-.63431.30976-.068 1.58679.16774 3.20449.59165 1.47923.38762 3.10147.793 3.605.90085.51983.11134 1.12604.40663 1.40266.68325.26794.26794.54125.70263.60734.96597.0661.26334.0397 5.08992-.0585 10.72574-.15913 9.12182-.21534 10.31516-.51195 10.86824-.18325.34172-.4919.70625-.68589.81007-.19398.10382-1.56049.50346-3.03668.8881-1.47619.38463-2.98785.7777-3.35924.87348-.37139.0958-.94572.17622-1.27628.17875-.33055.003-.82348-.17039-1.09539-.38428zm25.90937-3.00542c-.68974-.0361-2.2959-.15925-3.56925-.27375s-2.92291-.34903-3.66571-.52119c-.74279-.17215-1.73734-.48401-2.21011-.69302-.47278-.20901-1.31927-.81476-1.88109-1.3461-.56182-.53135-1.02149-1.08373-1.02149-1.2275 0-.14378-.0796-.26141-.17695-.26141-.0973 0-.26226-.4124-.36653-.91643-.11066-.53486-.1556-3.24601-.10793-6.51145.0449-3.07727.12995-6.13765.18897-6.80085.059-.66321.1872-1.20583.28486-1.20583.0977 0 .17758-.11611.17758-.25801 0-.14191.36898-.60235.81996-1.02319.45097-.42086 1.51451-1.29014 2.36342-1.93176.84889-.64161 1.80391-1.32952 2.12224-1.5287.31835-.19917.62227-.40754.67542-.46305.0532-.0555.40041-.26477.77172-.46502.37131-.20026 1.15287-.60442 1.73679-.89814s1.75598-.75274 2.60458-1.02005 2.49793-.62946 3.66516-.80478c1.16724-.17533 2.7734-.45045 3.56924-.6114.79585-.16094 1.70745-.36898 2.02579-.46232.31834-.0933 1.22994-.35913 2.02579-.59068.79584-.23155 1.57722-.48004 1.73638-.55221.15917-.0722 1.07078-.50775 2.02578-.96796.95502-.46021 2.04026-1.0665 2.41166-1.34732.37139-.28081 1.01292-.66637 1.42562-.8568.50446-.23278 1.00151-.31256 1.51675-.24345.46415.0623.9787.3062 1.30476.61859.2961.28367.62445.85497.72968 1.26953.12041.47438.12567 1.04596.0142 1.54211-.0974.43358-.4668 1.23665-.82086 1.7846-.35405.54795-1.06819 1.39175-1.58697 1.87512-.51879.48337-1.42077 1.22636-2.00438 1.65109-.58362.42472-1.71228 1.15924-2.50812 1.63226-.79584.47301-1.77734 1.03231-2.1811 1.24289-.40376.21057-.90088.55987-1.10471.77622-.36902.39167-.36671.39442.54118.6444.50147.13808 1.73656.49699 2.74463.79756s2.52741.70514 3.37631.89905c1.29191.29509 2.32952.34885 6.36675.32985 4.0311-.019 5.17187-.0892 6.94555-.42783 1.16724-.22283 2.68658-.53065 3.37631-.68404.68973-.1534 1.73156-.40737 2.31519-.56439.58361-.15703 1.79909-.5237 2.70105-.81484.90195-.29114 2.42129-.70091 3.3763-.9106 1.49831-.32899 1.91747-.35147 3.05704-.16405.72636.11946 1.74712.40067 2.26836.6249.52123.22423 1.20753.70361 1.52509 1.0653.36208.41239.57739.86981.57739 1.22665 0 .3571-.1976.77652-.53056 1.12611-.31141.32696-1.20796.81772-2.17048 1.18807-.90196.34706-2.56511 1.09282-3.69589 1.65725-1.13077.56444-3.38808 1.84062-5.01622 2.83596-1.62816.99535-3.5246 2.1286-4.21434 2.51834-.68972.38974-2.07073 1.0998-3.06887 1.57794-.99816.47813-2.03999.92295-2.31519.98849-.2752.0655-.58718.17877-.69329.25163-.10611.0728-.71385.27463-1.35053.44838-.63667.17375-2.1126.58-3.27984.90277-1.16724.32278-3.16408.88282-4.43743 1.24454s-2.8361.84645-3.47278 1.07718c-.63667.23073-1.76533.64092-2.50811.91153-.74279.27061-1.69781.64261-2.12226.82667-.42444.18407-1.29264.52821-1.92931.76478-.63668.23656-1.5917.55424-2.12226.70594-.53258.15227-2.08806.30542-3.47277.3419-1.37947.0363-3.07244.0366-3.76217.00052z" fill="#fff" stroke-width=".729192"/></svg>