<svg height="500mm" viewBox="0 0 500 500" width="500mm" xmlns="http://www.w3.org/2000/svg"><path d="m129.40362 451.14448c-.22496-.0478-.42304-.1009-.44017-.11823-.0347-.0347.46619-2.55867 1.24175-6.25659 2.52723-12.04989 5.34213-23.7666 8.59907-35.79253l.57533-2.12432-.0849-.96335c-.0696-.78958-.0793-1.26192-.0533-2.61837.0315-1.63504.0908-2.89254.17963-3.80202.0252-.25704.0389-.47411.0307-.48238-.009-.009-.35746.28033-.776.64131-12.01519 10.36377-24.04611 20.59096-36.62625 31.13507-3.083512 2.58447-3.511894 2.9297-4.15115 3.34542-2.473228 1.60838-4.779595 1.39327-7.361053-.68655-1.701057-1.37051-4.303465-4.58707-5.99634-7.41143-4.97676-8.30312-6.747572-18.49306-4.844558-27.87733.367153-1.81052.792742-3.31768 1.52753-5.40964.954628-2.71786 1.221962-3.93773 1.173938-5.357-.02735-.80955-.146165-1.31317-.453261-1.92311-.318462-.6324-.593462-.94346-1.707837-1.9317-1.831972-1.62463-2.331063-2.40623-2.407127-3.76966-.05953-1.0668.197464-1.88041 1.251312-3.96211.83448-1.64833 1.015453-2.06682 1.163698-2.69078.115654-.48676.134776-1.18821.04344-1.59052-.09676-.42562-.507227-1.21511-.858992-1.65191-.176503-.21913-.880895-.94144-1.565441-1.60516-.684535-.66371-1.383618-1.37368-1.553525-1.5777-.844903-1.01462-1.404659-2.19327-1.636473-3.44589-.107563-.58157-.14598-2.04611-.07171-2.74433.181284-1.70602.683006-3.49034 1.864414-6.63032.832147-2.21167 1.039758-2.80192 1.372907-3.90284 1.258173-4.15784 1.928273-8.59355 2.149457-14.22807.06458-1.64441.0647-6.24316.000241-8.57143-.02735-.99176-.09412-3.15932-.148003-4.81681-.268852-8.25669-.218897-12.95445.200429-18.84725.773194-10.86622 2.747895-21.63644 5.883145-32.08728 2.933039-9.77688 5.976975-14.2558 12.764321-18.78177 2.010918-1.34092 3.556658-2.21433 8.991338-5.08048 15.0083-7.9151 30.52925-17.90278 50.04528-32.20396 5.83579-4.2764 19.18494-14.28362 19.1287-14.33986-.0115-.0115-.32853-.0421-.70626-.0699-4.97086-.36446-10.53984-3.44883-13.95521-7.72909-.77733-.9742-1.79046-2.62383-2.48797-4.05106-2.31374-4.73435-3.48553-10.28553-3.87939-18.37794-.17558-3.60768-.25073-9.99195-.15536-13.1906.49516-16.59176 3.51935-27.08265 12.41845-43.07947 6.42233-11.54463 12.57752-19.553892 19.56263-25.455274 10.20901-8.62512 23.38966-13.948989 37.26246-15.050952 2.55662-.203076 6.30565-.261415 8.57143-.133484 7.26094.410307 13.76605 1.81044 20.02265 4.309593 4.32753 1.728601 6.63748 3.292296 8.14735 5.515255.3795.558756.87836 1.582357 1.10172 2.260663l.19495.592003.61866.0023c.5618.0023.66047.01655 1.07373.159036.61107.209875 1.027.425405 1.72577.894237 2.1952 1.472852 4.89101 4.512593 7.65097 8.627086 2.86708 4.274187 5.50075 9.298817 6.48662 12.375457.22162.69164.51389 1.91905.79991 3.35941 1.67017 8.41071 1.5808 17.80974-.27493 28.90988-.86801 5.19209-1.99252 10.32042-4.01696 18.31944-.91841 3.62883-8.8806 34.51629-9.39853 36.45944-1.71275 6.4257-3.1317 9.97413-5.30429 13.26471-1.97751 2.99507-4.42352 5.18836-7.41141 6.6457-3.04644 1.48589-6.13452 1.88258-8.96665 1.15187-.25813-.0665-.48283-.13641-.49932-.15535-.0165-.0187 1.07828-1.93498 2.43283-4.25816 1.35456-2.32317 2.59469-4.45108 2.75585-4.72868l.29304-.50472-.48846.43805c-2.19195 1.96579-4.87598 3.1736-7.92745 3.56732-.5774.0745-2.61719.08-3.07534.007l-.30878-.0484.00029 1.88148.0003 1.8815.32084 2.61367c.1765 1.43753.32266 2.64912.32491 2.69246.003.0899.006.084.95049-2.99653.38508-1.25671.71133-2.28488.72498-2.28488.0129.00001.16622.40574.3392.9016.92067 2.64045 1.79863 4.32164 3.29596 6.31123 3.90086 5.18338 10.59149 9.30384 19.05693 11.73632 3.0264.8696 5.599 1.43929 11.69257 2.58931 1.45367.27433 3.33225.63277 4.17455.79652 10.06007 1.95569 15.7627 3.98237 20.97232 7.45346 5.35629 3.56879 9.0648 8.05511 10.74168 12.99458.14304.42115.31148.96583.37445 1.21037.0631.24453.12007.45207.12669.46118.007.009.50868-.0959 1.11548-.23292.60679-.13716 1.5355-.32866 2.06382-.42545.5283-.0968.96917-.18458.97966-.1951.0165-.0165.10228-8.87133.10791-11.13429l.002-.75673-.11124.0347c-.0612.0191-.13697.0445-.16841.0563-.0315.0115-.0711-.0223-.088-.0756-.0224-.0708-.0938-.1063-.26382-.13128-.39509-.0581-1.68296-.40062-2.33267-.62039-.48524-.16419-1.42245-.53734-2.06296-.82146-.0416-.0184-.0579.0115-.0494.0861.0115.10389-.0322.12741-.506.27164-.28531.0868-.52234.15481-.52675.15114-.003-.003-.0876-.28474-.18452-.62439-.10664-.37286-.21101-.64269-.26366-.68106-.048-.0349-.35402-.23136-.68008-.43648-1.14646-.72124-2.42361-1.70271-3.30449-2.53946-.19954-.18955-.3743-.34463-.38836-.34463-.0147 0-.0356.039-.0482.0864-.0184.0671-.1366.10699-.52935.17798-.27865.0503-.52453.0726-.54636.0494-.0218-.0232-.13239-.47558-.24564-1.00539-.11331-.52984-.23395-.99671-.26821-1.03747-.45952-.54709-.83243-1.01159-1.17807-1.46738l-.41965-.55339-.11749.12575c-.39252.42019-1.07099.34017-1.46195-.17246-.24597-.32249-.33781-.71522-.53081-2.27012l-.17835-1.43649-.36557-.75651c-2.59179-5.36328-3.81098-12.38468-3.66133-21.08584.0407-2.35845.20515-6.54809.30009-7.63866l.0263-.30232-.30947.0728c-.65116.15334-1.59959-.0276-2.2976-.43824-.15537-.0914-.46176-.3441-.68072-.56148-.31337-.31107-.44248-.48517-.60647-.81775-.53016-1.07507-.63554-2.4461-.32642-4.24606.35857-2.08785 7.45308-39.99903 7.4895-40.02192.0264-.0165-.23142-.54725-.57644-1.18568-1.20962-2.23821-2.67357-5.22974-3.80877-7.78307-.3612-.81239-.63337-1.34129-.93932-1.82539-3.68975-5.83765-6.75634-12.42795-8.38836-18.02708-.69817-2.39526-1.13118-4.49077-1.39861-6.7682-.12521-1.06657-.12539-4.16574-.0004-5.08853.33088-2.44111.97568-4.26477 2.10967-5.96656 1.0378-1.55742 2.10078-2.47467 3.87772-3.34605.43476-.21318 1.07946-.48922 1.4327-.6134.35324-.1241.70893-.26314.79044-.30879.0815-.0456.35941-.20151.61754-.34638 1.6477-.9247 3.53224-1.34965 5.98535-1.34965.9598 0 .85557.0232 4.55393-1.00964 13.92564-3.88865 23.20519-6.142742 32.24376-7.832249 12.82971-2.398152 23.48246-3.057083 33.10002-2.047398 12.93375 1.357841 24.44842 5.88511 32.94539 12.953277 2.06568 1.71832 4.23235 3.87794 5.94015 5.92079 3.56447 4.26373 6.45703 9.18424 8.66538 14.74063 3.80487 9.57339 5.3456 20.31167 4.64213 32.35399-.49509 8.47519-1.99155 17.35659-4.81632 28.58465-1.54378 6.13636-2.66922 9.82617-4.08231 13.384-2.9581 7.44799-6.55444 12.63353-14.78715 21.32163-4.4513 4.69754-6.6898 7.02395-11.71761 12.17787-2.63624 2.70233-3.38202 3.43666-4.43888 4.37061-1.81361 1.60268-3.72674 2.78466-5.36821 3.31663l-.35379.11469-.12777.38757c-.96589 2.93172-4.09037 5.13452-8.60073 6.06361-1.37425.2831-3.21441.40411-4.56977.30057-3.6602-.27965-8.57069-1.57877-13.65995-3.6139-7.4872-2.99401-13.86889-6.875-18.02481-10.96172-1.62469-1.59764-2.66302-2.87111-3.59757-4.41229-1.92821-3.17987-2.40857-6.45507-1.38251-9.4264l.0949-.27482-.14617-.19451c-.0803-.10699-.36322-.51683-.62857-.91084-2.91494-4.32801-4.69522-9.42437-5.70368-16.32769-.34514-2.36265-.52958-4.07176-.94629-8.76906-.65636-7.39831-1.10276-10.70429-2.14797-15.90776-.31502-1.56841-.44439-2.10657-.65912-2.74187-1.69406-5.01225-4.35049-9.2257-9.46494-15.0126-.4774-.5402-.90135-1.02256-.94211-1.07193-.0618-.0748-.22589-.10273-.98805-.16804-1.18037-.10113-1.8104-.19549-2.48922-.37314-.81886-.21431-.99122-.26522-1.01841-.30083-.0502-.0658-.41385-.19265-.44638-.15573-.0264.03-6.86701 36.67165-7.1964 38.54785-.12079.68762-.11951 2.23234.002 2.6649.16015.56919.35423.92826.66786 1.23515.49571.48504 1.13769.73219 1.77003.68143.51633-.0414.66071-.1607 1.35636-1.12117.33365-.4606.61432-.8298.62369-.82042.009.009-.0393 1.0032-.10814 2.20853-.2554 4.47164-.31719 5.98569-.3566 8.73741-.0989 6.91315.57204 12.27176 2.13474 17.04762.17872.5464.33325.98524.34326.97524.009-.009-.0352-.59561-.10044-1.30131-.64621-6.99391-.9329-14.63861-.81607-21.76065.0292-1.77976.0655-3.29705.0806-3.37177l.0276-.13587h.54284.54284l-.0404 2.03788c-.0542 2.73648-.0389 8.29798.0291 10.4611.1811 5.77987.49802 10.43019 1.0956 16.08067l.1515 1.4327.30109.54343c.56544 1.02054 1.60178 2.64608 1.96851 3.08769l.10262.12355-.0307-.17282c-1.36807-7.68607-1.73831-14.4049-1.28501-23.31823.11731-2.30591.47665-7.76724.54553-8.29044l.0282-.21304.52759.0342c.29017.0187.53932.0407.55366.0485.0147.007-.00046.41081-.0329.89522-.0899 1.34374-.2107 3.82824-.26491 5.45057-.0629 1.87892-.0629 7.60504-.00006 9.48539.19457 5.82716.66399 11.26301 1.46115 16.92054l.17413 1.23506.70157.70782c.78934.79633 1.50941 1.4446 2.22118 1.99968.46462.36234 1.38769 1.02244 1.42975 1.02244.0115 0-.15095-.68361-.36039-1.51914-1.71552-6.84349-2.76821-13.81503-3.15738-20.90985-.15242-2.78034-.19644-7.11454-.0987-9.73239.0873-2.33911.29177-5.4954.36032-5.56396.0165-.0165.26829-.0147.55868.006l.528.0361-.0315.47644c-.0165.26203-.0647.96553-.10549 1.56331-.15536 2.27818-.18276 3.10814-.20848 6.27623-.0328 4.03996.0467 6.40902.33216 9.90327.5271 6.45325 1.68079 13.14307 3.31525 19.22381l.30041 1.11759.773.37372c.42516.20556.90975.43007 1.07689.49893.92081.37937 2.88261.96346 2.88261.85825 0-.0292-.0986-.38885-.21913-.79923-1.1501-3.91583-2.14509-8.29586-2.84052-12.50403-1.52771-9.24458-1.84465-18.67149-.94092-27.98683.10733-1.10752.29902-2.78198.32118-2.80703.0232-.0263 1.0336.10136 1.0724.13531.0199.0165.003.29776-.0375.62301-.22538 1.81249-.44855 4.407-.60119 6.98904-.10906 1.84408-.12594 8.53532-.0261 10.37463.49282 9.08847 1.77893 16.77043 4.19633 25.06499.36111 1.23904.32748 1.18458.76748 1.24218l.23466.0307-.00081.52805c-.00046.29043-.0228 3.1383-.0496 6.32859-.0269 3.1903-.0388 5.81059-.0264 5.82291.0129.0129.41812-.0245.90181-.0818.97083-.1151 2.11841-.22303 3.25078-.30585 1.10641-.0809 6.61069-.11492 8.39854-.0518.8423.0298 2.40962.0908 3.4829.13568l1.95143.0816 1.28446-.20889c14.3555-2.33459 28.50905-5.68628 42.80773-10.13724 2.54924-.79354 3.71335-1.12914 4.74465-1.36789 4.06527-.94107 6.94545-.7615 10.2779.64079 2.10008.88371 4.29456 2.27502 7.02469 4.45372 5.15175 4.11116 9.6222 8.97791 13.26058 14.43617.50747.7613 1.25044 1.93344 1.25044 1.97275 0 .0303-.87854.5715-.92786.5715-.0218 0-.12723-.15003-.23421-.33347-.30424-.52158-1.81905-2.77417-2.4169-3.59407-3.3192-4.55207-7.15966-8.58925-11.42726-12.01263-4.25102-3.41006-7.28272-4.98338-10.56947-5.48508-.76355-.11657-2.62396-.1162-3.54739.00083-1.78843.22648-3.24954.59353-6.91644 1.73744-6.37885 1.98993-12.04001 3.57762-18.13091 5.08488-3.66844.90778-3.63715.89905-2.81524.78622l.19835-.0272.0928.4592c.0511.25256.10274.49698.11469.54315.0165.0646-.0392.10412-.24176.17062-.14507.0476-.37896.13717-.51982.19887-.25489.11158-.2564.11181-.32167.0129-.0655-.0986-.0663-.0986-.63314.006-1.23611.22831-2.48355.48389-5.68081 1.16393-5.39167 1.14678-7.34279 1.50005-9.93001 1.79793-1.83145.21086-2.75361.26415-4.85193.28042l-2.06067.0165-1.32056.2024c-6.63954 1.01759-13.75378 1.86962-20.42059 2.44567-1.19219.10297-1.16637.0963-1.30515.33874-.96798 1.69101-2.34864 4.15971-2.62849 4.69991-1.03203 1.9922-1.47844 3.40317-3.11048 9.83119-.39323 1.54881-.72592 2.84679-.73928 2.88444-.0208.0583-.0115.0583.0689 0 .6292-.46153.95345-.67823 1.3918-.93015 2.21549-1.27325 5.63849-2.22787 10.19119-2.84218l.87971-.11877 1.56573-.65192c2.18931-.91154 3.40053-1.43825 3.88109-1.68774l.41189-.21383.38216 1.0143.38217 1.0143.74907-.0329c2.29192-.10043 6.48828-.14194 9.39671-.0931 6.24588.10515 10.85335.32565 20.17903.96596 6.73699.46256 6.78569.46464 8.70005.36966 5.81605-.28854 15.80624-1.21165 23.80715-2.19979 14.99886-1.85243 24.79328-3.94762 27.98683-5.98684.58922-.37624 1.01275-.85593 1.01275-1.14705 0-.0634.0421-.11032.11565-.12889.30784-.0772.94814-.20862.96039-.19704.076.0717.41279 2.22383.53783 3.43537.10538 1.02188.12117 4.23677.0263 5.36025-.40061 4.74005-1.3799 9.03404-3.79129 16.62412-8.08603 25.45153-21.36392 49.66299-38.52256 70.24376-2.84907 3.41727-4.53812 5.28128-5.56748 6.14423-1.30529 1.09425-2.67048 1.77494-3.99746 1.99307-.65872.10826-1.794.0742-2.43788-.073-1.49012-.34088-3.16083-1.22712-4.81815-2.5558-.45718-.36653-.7073-.52853-1.01275-.65595-.77673-.32402-2.16357-.98671-2.91065-1.39088-2.5421-1.37521-4.37398-2.73752-6.2155-4.62227-1.99487-2.04172-3.37382-3.94692-7.07805-9.77936-2.54535-4.00775-3.93695-6.11464-5.82157-8.81391-7.40704-10.60889-13.67366-20.92375-19.70418-32.43309-.41288-.78797-1.6592-3.25568-2.76959-5.48374-1.3458-2.70038-2.36744-4.67698-3.06419-5.92837-2.0957-3.76396-2.77327-5.05925-4.50962-8.62081-.17889-.36684-.50311-1.00043-.72064-1.40801-.71732-1.34405-1.29494-2.81533-1.542-3.92754-.0949-.42737-.11491-.65793-.11342-1.30917l.001-.79045.97621-3.82874c2.0311-7.96627 2.48596-9.55813 3.20139-11.20389.46434-1.0682.64527-1.40701 2.50579-4.69261l.90282-1.59431-.0344-.32073c-.019-.17651-.0542-.33305-.0787-.3481-.0612-.0379-.97059.22802-3.25409.9517-6.08587 1.92868-9.63697 3.02098-23.3399 7.17923-8.46097 2.56753-14.29889 4.37105-18.60327 5.74712-.80157.25626-3.69165 1.1788-6.4224 2.05009-7.98062 2.54637-11.20212 3.6543-14.89501 5.12273-6.85471 2.72563-12.14731 5.63639-16.37468 9.00554-1.37233 1.09375-2.84708 2.44369-3.87665 3.54863l-.65095.69858-.21229 1.40106c-.2309 1.52391-.273 1.73915-.31754 1.62333-.0166-.0408-.13276-.46861-.26019-.95076l-.23166-.87668-.34031.43203c-.66922.84963-1.81826 2.50946-1.76454 2.54892.0115.007 2.59777.58684 5.74968 1.28712 3.15192.70028 6.03475 1.34897 6.40632 1.44152 1.95698.48751 3.06402 1.0507 3.99527 2.03253 1.01 1.06486 1.5287 2.59233 1.52911 4.50303.00042 1.99855-.6527 3.82118-1.80141 5.02718l-.34778.36511.27186.16824c.39043.24172.93578.73495 1.29509 1.17129.58036.70478 1.01278 1.56636 1.26028 2.51099.16806.64113.21238 1.84464.0917 2.48555-.24287 1.28983-.89069 2.44089-1.93981 3.44665-1.16041 1.11246-2.58685 1.81524-4.26414 2.10089-.25814.0439-.47317.0837-.47786.088-.003.003.0254.15243.0668.32893.10699.45668.064 1.52098-.0818 2.02523-.15261.52765-.53855 1.30019-.87778 1.75711-.52134.70218-1.45683 1.4842-2.3063 1.9279-.24676.12889-.28348.16915-.35599.39075-.24506.7487-.74101 1.86096-1.18365 2.65454-1.85851 3.33197-4.96422 6.44573-9.70302 9.72816-1.7978 1.24529-3.43751 2.28138-7.06462 4.46395-2.97485 1.79005-4.36952 2.66067-6.26999 3.91399-12.98902 8.5661-24.39142 19.24566-33.82538 31.68112-2.47103 3.25724-4.19583 5.68453-8.98654 12.64673-5.11496 7.43344-7.24025 10.39916-9.94827 13.88227-3.20281 4.11947-6.51721 7.86206-9.43931 10.65874-.96187.92058-1.11328 1.04772-1.14516.96154-.091-.24613-.95694-6.63715-1.42712-10.53341-.13938-1.1548-.26583-2.15522-.28107-2.22314-.0315-.1401-.0384-.11547-.97545 3.43351-2.75735 10.4431-5.19903 20.76234-7.45787 31.51913-.32467 1.54607-1.26483 6.13868-1.26483 6.17855 0 .0388-.21512.0129-.63135-.0756zm-33.654369-17.24266c.722538-.20485 1.620602-.72187 2.515012-1.44792.963499-.78213 8.888087-7.43664 14.010297-11.7649 6.96125-5.88224 16.68759-14.17367 22.08316-18.82531.5706-.49192 2.00555-1.72952 3.18879-2.75021l2.15133-1.85578.13845-.66144c.37288-1.78085 1.05232-3.63793 1.96812-5.37943 1.61936-3.07943 3.63969-5.78838 6.79525-9.11133l.88802-.93513.0309-.34936c.0166-.19214.0751-1.21638.12908-2.27608.3233-6.33918.858-11.01193 1.87483-16.38392 1.65319-8.73406 4.24967-16.98428 7.9797-25.35536.10975-.24618.11639-.2852.0441-.25747-.0469.0184-10.77736 5.65786-23.84559 12.53307-13.06826 6.87519-23.77739 12.48221-23.7981 12.46-.0965-.10354-.50035-.91378-.47066-.94439.0184-.0191 6.77384-3.58157 15.01195-7.91674l14.9784-7.88212-.0129-.91162c-.0522-3.60744-.50109-15.06223-1.00074-25.53904-.4757-9.97422-1.10291-15.96114-2.26532-21.6228-.10504-.51132-.18369-.93785-.17505-.94781.0374-.0429 1.06078-.24006 1.0804-.2083.0115.0193.1322.58941.2675 1.26699.75606 3.78881 1.30577 7.96082 1.70836 12.96519.2547 3.1662.42037 6.23943.79221 14.6974.43991 10.00669.6237 14.78224.69915 18.16798.0186.83553.0429 1.51915.0537 1.51915.0115 0 3.876-2.02862 8.58921-4.50804l8.56948-4.50803 3.64615-5.1132c2.97786-4.17603 3.67556-5.18428 3.80657-5.50089.0883-.21324.15076-.39733.13899-.40911-.0115-.0115-.13715-.0352-.27867-.0518-.24573-.0291-.25584-.0361-.22574-.15611.0763-.30406.39283-.55149.70546-.55149.14158 0 .15243-.0166.30003-.46194.22791-.68729.32138-1.29784.28477-1.86001-.0355-.54377-.15757-1.04368-.57334-2.34663-.39127-1.22615-.50233-1.77507-.50473-2.49487-.003-.87596.16473-1.58938.55922-2.37949.49411-.98963 1.01677-1.60769 2.97244-3.51502 1.61262-1.57276 2.09249-2.10037 2.56946-2.82512.6577-.99934 1.00702-1.83404 1.91245-4.56978.92908-2.80721 1.39428-3.82763 2.29078-5.02485.45431-.60671 1.30135-1.47958 1.88387-1.94135 1.38268-1.09604 3.19296-1.98942 5.05478-2.49454 2.34136-.63522 5.03644-.75611 8.18525-.36715 1.73593.21442 3.1981.49477 7.08306 1.35812l2.538.56402 1.14253-.54639c3.77683-1.80618 8.37983-4.28327 12.43112-6.68977 1.32268-.78568 1.96189-1.10977 2.62156-1.32917.59209-.19693 1.29853-.2905 1.76342-.23362.2687.0329.30612.0278.28544-.0395-.0497-.16144-1.12446-4.64952-1.52702-6.37634-2.99305-12.83894-5.53272-26.02108-7.5423-39.14803-.10791-.70431-.2015-1.28542-.20817-1.2913-.007-.006-.46339-.23615-1.01498-.51172-4.22172-2.10914-8.13965-4.81709-12.11364-8.37259-.95215-.85189-3.61193-3.51427-4.48583-4.49024-5.00832-5.59326-8.86504-11.7195-11.4676-18.21574-.23403-.58421-.44066-1.08604-.45917-1.1152-.0186-.0292-.12374-.0828-.23374-.11914-.10998-.0364-.20009-.0729-.20009-.0811 0-.007.0434-.12522.0965-.25979l.0965-.24483-.32122-.95503c-.35977-1.06966-.89179-2.8755-1.10951-3.76595-.0791-.32328-.14985-.59389-.15719-.60136-.007-.007-.15593.0193-.32982.0595-.26591.0614-.39565.13423-.81486.4572-1.80397 1.3898-11.75978 8.87898-15.0243 11.30189-15.79414 11.72241-27.84928 19.98593-39.49654 27.07393-5.82275 3.54345-10.81481 6.3678-17.14284 9.69886-4.0397 2.12648-5.76863 3.11665-7.682184 4.39961-6.28814 4.21597-9.170696 8.38134-11.912799 17.21423-4.511237 14.53159-6.760374 30.55809-6.447061 45.939.03126 1.5351.100784 4.13186.154451 5.77061.253165 7.72438.265622 11.58174.04873 15.08329-.242076 3.90809-.730686 7.3147-1.487538 10.37117-.483198 1.9513-.903983 3.27283-1.786511 5.61072-1.624601 4.30368-2.070232 6.02664-2.070048 8.00328.000149 1.45408.300431 2.5689.973554 3.61433.366912.56987.586774.81137 2.151836 2.36345 1.540367 1.52758 1.799577 1.83739 2.198573 2.62774.319772.63335.421268 1.0371.451986 1.79784.04838 1.19649-.144694 1.81153-1.273721 4.05982-.516294 1.02809-.895468 1.85097-1.013052 2.19844-.176687.52214-.18811.59228-.191121 1.17289-.0057 1.21089.297283 1.70389 1.947419 3.16281 1.199185 1.06025 1.658525 1.58489 2.021139 2.30844.38292.764.544438 1.42477.582774 2.38383.06091 1.52134-.234847 2.89904-1.236166 5.75986-.749693 2.14193-1.149345 3.56389-1.512234 5.38053-.704174 3.52497-.884412 7.36928-.517696 11.04157.722596 7.23614 3.481361 14.17123 7.824726 19.67016 2.422618 3.06715 4.215391 4.50882 6.012071 4.83463.385345.0699 1.230892.0191 1.647103-.099zm55.524679-54.45532c.7684-.74393 1.78445-1.68965 3.80836-3.5447 2.03786-1.86782 3.42166-3.16499 3.61009-3.38403.32327-.37582 1.08999-1.42876 1.25423-1.72245.10021-.17928.23564-.35416.30086-.38863.0653-.0344 1.3119-1.62997 2.77041-3.54556 4.52463-5.94262 5.76779-7.50847 7.33878-9.24373.23635-.26107.7339-.91691 1.10564-1.45738 3.59256-5.22334 6.72321-8.12811 10.76084-9.98448 1.52177-.69964 3.03036-1.24491 5.04523-1.82352 1.224-.35149 2.09385-.57144 6.62002-1.67382 4.21881-1.02754 6.52094-1.79456 8.74433-2.91342 2.38185-1.1986 3.88483-2.37552 5.67969-4.4475.79017-.91218 1.5013-1.63046 1.93871-1.9582l.30575-.22909-1.41782-.0374c-2.69873-.071-6.96023.0129-10.13745.20005-7.52728.44282-15.15445 1.57188-22.3927 3.3148-.61856.14894-1.14222.25997-1.16368.24671-.053-.0328-.28096-1.00963-.24422-1.04638.0349-.0349 1.41268-.36938 2.95252-.71677 10.29119-2.32176 21.20312-3.39164 31.71675-3.1097.96459.026 1.97038.0614 2.23509.0788.46438.0307.48034.0356.45405.14028l-.0272.10872.41053-.0618c.67244-.10113 2.08861-.0794 3.67111.0566 2.2971.19732 3.72668.16364 5.36025-.1265 2.62916-.46693 5.27542-1.66437 7.34972-3.32574.22473-.18.42002-.32727.43399-.32727.0393 0-.13331 1.35587-.22203 1.74328l-.0429.18707.14433-.0914c.25788-.16326.82563-.69917 1.05094-.99195 1.079-1.40227 1.17692-3.08858.24483-4.21654-.71815-.86906-2.06623-1.44586-4.06809-1.74061-.52004-.0765-28.22529-2.41099-30.7781-2.59333-2.50967-.17926-3.61968-.22153-5.82955-.22199-2.15132-.00045-3.0801.0392-4.59448.19607-3.31799.34371-6.11858 1.08028-8.63376 2.27073-.33316.15776-.61334.27769-.6226.26668-.0632-.075-.47605-.8817-.47605-.93016 0-.0715.98391-.54602 1.89484-.91367 2.7003-1.08989 5.66133-1.70385 9.46788-1.9632 1.09699-.0748 4.78331-.0741 6.17537.00097 2.09546.11308 3.44698.21748 11.31328.874 23.49165 1.96057 22.32396 1.85468 23.49115 2.13013 1.57947.37274 2.84828 1.05435 3.51605 1.88885l.23769.29706.29687-.0267c2.6475-.23705 4.91727-1.88177 5.65061-4.09457.55223-1.66633.0752-3.63992-1.19844-4.95806-.42067-.43538-.84313-.74661-1.28606-.94745l-.32676-.14819-.30488.1c-.70692.23207-1.04254.27239-2.23761.26882-.91775-.002-1.27375-.0246-1.85111-.11377-1.53408-.23711-2.80425-.54226-5.78165-1.38909-.9646-.27432-1.96501-.55201-2.22314-.61704-.60699-.15297-6.07916-1.20988-11.36397-2.19495-6.65758-1.24096-14.85834-2.6977-20.47629-3.63732-.92383-.15444-1.69434-.29513-1.71224-.31251-.0324-.0315.12007-1.02483.16401-1.06883.0508-.0508 10.08452 1.68863 16.96192 2.94028 7.08542 1.2895 15.73898 2.93853 16.74763 3.19143.27171.0683 1.26433.34374 2.20582.61246 3.91256 1.11679 5.34792 1.4149 7.0624 1.46686.94094.0285 1.47441-.0165 1.97123-.16327.22402-.0665.24676-.0868.24676-.21957 0-.15868.0248-.16695.3058-.1017.16272.0379.21048.0233.44462-.13384.86066-.57775 1.52115-1.67356 1.85207-3.07276.1708-.72211.21522-2.07776.0925-2.82252-.17411-1.05716-.56554-1.93753-1.13167-2.54529-.69396-.74499-1.74907-1.28112-3.28865-1.67104-.53491-.13551-.88024-.21274-18.09857-4.04981l-12.53685-2.79381-.33262.15371c-.18295.0846-.45099.20729-.59568.27283l-.26303.11914-.2061-.44614c-.11342-.24539-.23951-.45638-.28039-.46886-.22715-.0693-4.25138-.94172-5.23398-1.13458-4.72295-.92697-8.14989-.93645-11.14332-.0309-2.9716.89901-5.28562 2.62068-6.56917 4.88759-.45455.80281-.82558 1.73711-1.46434 3.68735-.90579 2.76558-1.32796 3.76248-2.07043 4.889-.51275.77796-.7624 1.05306-2.71415 2.99079-1.90402 1.89034-2.26379 2.30679-2.68873 3.11238-.35299.66915-.48735 1.19151-.48928 1.90202-.002.71812.0647 1.04651.46405 2.28466.38303 1.18768.52335 1.74846.59364 2.37247.0953.84539-.0448 1.71895-.45428 2.8314-.10664.28992-.19397.56218-.19397.60497 0 .2571-.1333.61701-.35375.95461-.5913.90577-.88101 2.41959-.81168 4.24131.0687 1.80627.76682 18.00591.79216 18.38286l.0269.40018-.55008.0334c-.30257.0184-.55912.0245-.5701.0129-.0386-.0388-.81213-18.15143-.82134-19.23493-.006-.60319-.023-1.08117-.0395-1.06218-.0165.019-.97021 1.35734-2.11915 2.97406-1.14892 1.6167-2.11351 2.97152-2.14356 3.01071-.0415.0542-.0399.0623.007.0342.034-.0205.0618-.026.0618-.0129 0 .0129-.26897.59864-.59774 1.29974-1.22159 2.60513-2.19311 4.85688-3.11044 7.20932-4.33052 11.10534-6.84479 22.72422-7.48208 34.5759-.12209 2.26982-.14949 2.89006-.12742 2.89006.0115 0 .25586-.22787.54355-.50641zm215.30224-10.09337c.53896-.10228 1.00277-.27198 1.63083-.59687 1.29513-.66993 2.39115-1.65847 4.37925-3.94975 18.37528-21.17747 32.40456-46.12574 40.92705-72.78069 2.5122-7.85716 3.54565-12.4556 3.84943-17.12846.11951-1.83796.009-4.78428-.2283-6.13293l-.0274-.15519-.31548.23881c-2.4313 1.84024-9.38825 3.62944-20.72123 5.32914-9.10032 1.36485-22.17772 2.73937-30.80279 3.23756-3.0872.17836-2.89541.1835-9.16427-.2457-11.95625-.81852-16.86113-1.02958-23.91107-1.02887-3.3289.00036-6.68559.0662-6.75175.1322-.0129.0129 20.24427 53.48416 24.51987 64.72621 3.60354 9.47496 5.69945 14.02059 8.76989 19.02017 1.15407 1.87917 1.7013 2.95886 2.07283 4.08971.24108.73383.33859 1.33159.34022 2.08569.001.46845.0204.63485.0923.7932.18073.39774.73089.76483 2.66001 1.77461l1.27315.66644.50092.00083c.27552.00043.68345-.0338.90653-.0761zm-146.46437-71.22399c.29056-.44153.77004-1.12515 1.06553-1.51913l.53722-.71634-.17908-.0926c-.0986-.0509-.18798-.10055-.1989-.11055-.0115-.009.0765-.22373.19414-.47546.11767-.25174.31794-.719.44494-1.03833l.23093-.58062-.19762-.75327c-.10872-.41429-.4572-1.7732-.77447-3.01981-.65613-2.57808-.54852-2.35569-1.188-2.45491-.82841-.12852-1.71689.1537-3.16106 1.00396-4.59678 2.70653-6.98178 4.01887-10.85682 5.97393-1.17547.59305-2.13143 1.07997-2.12433 1.08205.0614.0184 15.58742 3.49318 15.627 3.49777.0286.003.28991-.35519.58047-.79674zm6.18498-7.02943c4.95329-4.32007 11.3423-7.8552 20.27995-11.22115 2.98774-1.12521 6.09225-2.1749 11.81283-3.99416 2.10277-.66873 4.43459-1.41313 5.18181-1.65422 5.52202-1.78168 10.60044-3.35381 22.60189-6.99692 11.85718-3.59932 15.27725-4.65127 20.69988-6.36682 1.49444-.47278 3.03951-.95231 3.4335-1.06559.39399-.11331.73608-.22405.76019-.24615.0862-.0791-.33591-1.48153-.77225-2.56594-.82147-2.04163-1.97235-3.93098-3.56598-5.85425-.67491-.81452-2.56474-2.69084-3.46189-3.43716-3.71734-3.09241-8.047-5.37465-13.24002-6.97903-3.60541-1.1139-6.47738-1.77265-13.51172-3.09924-6.8233-1.28679-9.69597-1.91964-12.84479-2.82974-5.44091-1.57254-10.1812-3.8462-14.02497-6.727-3.1324-2.34763-5.53302-5.02951-7.24082-8.08914-.20233-.36247-.47236-.88584-.60009-1.16302-.12778-.2772-.24555-.50386-.26182-.5037-.0315.0003-.66005 2.05858-1.54641 5.06352-5.96835 20.23349-10.83203 41.03082-14.43753 61.73551-.31417 1.8042-1.31128 7.78248-1.31175 7.86483-.00014.0224.3499-.29226.77786-.69945.42795-.40716 1.00042-.93421 1.27213-1.17118zm-3.65313-.62661c-.0356-.31477-.28057-1.14061-.37777-1.27356-.0482-.0658-.0517-.0658-.0318 0 .0129.0408.10882.4131.21462.82742.10572.41434.20073.75336.21102.75339.0115.00006.003-.13826-.0166-.30725zm1.23198-2.21401c3.32481-19.91236 7.93807-40.34905 13.59262-60.21514l.6664-2.34126-.0524-1.75705c-.0287-.96636-.0526-2.14705-.0527-2.62374-.00024-.47667-.0147-.98147-.031-1.12176-.03-.24978-.0353-.25685-.25893-.33947-.90304-.33378-4.13005-1.64239-5.53911-2.24623-8.9417-3.83183-15.83345-7.81871-21.92621-12.68433-2.62039-2.09263-5.17599-4.38591-7.37076-6.61419-5.77069-5.85882-8.73594-10.97362-8.74243-15.07992l-.00095-.61156.40757.0342c.9862.0828 2.2249.33357 3.08769.62502.22417.0757.40757.12908.40757.1186 0-.0115-.31957-.3747-.71017-.80938-.61825-.68804-1.99935-2.29823-2.29859-2.67988l-.10227-.13036.43159-.352.4316-.352.0987.11509c.0544.0632.44338.52405.86455 1.0239.89668 1.06423 2.27019 2.5931 3.23885 3.60524.65893.68851.71059.73042 1.32937 1.07827 2.67256 1.50245 4.76904 3.06063 10.15425 7.54699 4.05511 3.37826 5.70388 4.6617 7.70622 5.99868.82931.55374 1.16397.72517 2.29753 1.17688 5.0789 2.02391 10.20025 2.323 15.72807.91855.58048-.14746 1.06402-.26814 1.07454-.26814.0115 0 .0195-.061.0199-.13588.001-.25283.0408-.26953.54776-.23257l.46423.0338.76575-.28385c2.93552-1.08809 5.75302-2.62773 8.27501-4.52188 5.01639-3.76757 9.35095-8.97042 13.12753-15.75716 4.84727-8.7108 7.98937-18.49915 9.17418-28.57967.41567-3.53661.60777-7.65243.50786-10.88177l-.0524-1.69281-.14563-.1845c-.42614-.53966-.89715-1.49534-1.12035-2.27311-.33795-1.17779-.35973-2.67524-.0537-3.68925.0407-.13458.0671-.2515.0588-.25981-.007-.009-.57787.96885-1.26572 2.17143-.68785 1.20259-1.26395 2.20222-1.2802 2.2214-.0165.0191-.0214-.22202-.0115-.53597.0215-.67844-.0395-1.22097-.27031-2.40309-.43892-2.24775-1.13823-4.74345-3.26306-11.64502-2.18592-7.10007-2.29462-7.52048-2.63756-10.20172-.13551-1.0597-.31236-2.41582-.39295-3.01359-.0806-.59777-.2243-1.69608-.3194-2.44066-.095-.74461-.17982-1.36068-.18811-1.36904-.009-.009-.1789.5008-.3791 1.13151-1.68233 5.30187-3.9455 11.13554-6.37666 16.43695-.9342 2.03712-2.90109 6.06342-3.03544 6.21371-.0374.0416-3.75132-.33756-5.73215-.58526-8.1185-1.01521-16.54475-2.81679-23.92248-5.11473l-.55482-.17283.14249-.25691c.0784-.14138 2.13698-3.98068 4.57476-8.53192 2.43776-4.55126 5.00453-9.34211 5.70394-10.64636 1.50514-2.80685 1.39279-2.59366 1.36708-2.59366-.0115 0-3.65252 4.31199-8.09148 9.5822-4.43895 5.27021-8.07737 9.56341-8.08539 9.54045-.007-.023.4095-4.40511.92784-9.73812.51833-5.33301.93618-9.71298.92853-9.73326-.007-.0202-.26259.38891-.56657.90933-2.34219 4.00986-5.42053 8.42353-8.47339 12.14892-1.44671 1.76545-4.01043 4.67808-4.06741 4.62102-.007-.007.84986-3.11605 1.90663-6.9065 1.05674-3.79044 1.91635-6.90593 1.91022-6.92331-.006-.0165-.27791.2025-.60397.48863-6.13876 5.38692-11.22942 11.98472-14.85643 19.25477-.25757.51627-.85397 1.76123-1.32533 2.76657-2.98748 6.37172-4.75932 9.27965-7.06114 11.58865-1.40455 1.40892-2.65592 2.26521-4.18281 2.86219-.86979.34008-2.19507.64065-2.82846.6415l-.2171.0003.034.72867c.17668 3.79238.76433 6.19148 1.96339 8.01566.40564.61711 1.28972 1.503 1.91678 1.92068 1.1586.77175 2.18849 1.1075 3.38712 1.10421.68452-.002 1.10202-.0815 1.70399-.32457l.29682-.11988v.15444c0 .14581.0147.13293.27839-.22962.15315-.21124.28544-.37699.29411-.36835.0221.0221.43485 2.50989.58395 3.51973 1.14227 7.73624 1.3571 15.95679.62293 23.83698-.0518.55702-.13899 1.46849-.19375 2.02553-.0546.55701-.1344 1.47961-.17724 2.05021-.28725 3.82916-.90895 7.21919-1.8002 9.81627-.1333.38862-.38785 1.27389-.56551 1.96725-.78888 3.07863-1.7785 6.29624-2.82591 9.18807-.21161.58421-.3819 1.09553-.37844 1.13627.0115.12264.86189 2.23442 1.28479 3.1865 2.55993 5.76327 6.0951 11.16491 10.54854 16.11795.82412.91655 3.14932 3.25809 4.05524 4.08366 3.28552 2.99422 6.84449 5.57506 10.43268 7.56547.37912.2103 1.26733.66926 1.9738 1.0199.70645.35063 1.28965.65306 1.29597.67208.006.019.16861 1.0572.36054 2.3071 2.15338 14.02085 4.93427 28.17351 8.22693 41.86906 1.01114 4.20573.92981 3.91076 1.11663 4.05046.78528.58713 1.4574 1.53236 1.75133 2.46298.0513.16254.0978.29121.10332.28577.006-.006.11193-.62045.23657-1.36667zm16.87153-109.9982c-.12227-.0115-.53355-.0426-.91394-.0723-6.01896-.46699-11.9902-2.98437-16.61833-7.00605-.7021-.6101-2.4428-2.35629-2.41783-2.42546.009-.0245.191-.19824.40492-.38635l.38893-.34202 1.04374 1.04479c1.38887 1.39023 2.55033 2.34955 4.08481 3.37391 3.88339 2.59236 8.26661 4.14161 13.06435 4.61755.87773.0871 4.03867.0752 4.85752-.0184.33488-.0383.61643-.0573.62565-.0423.0353.057.13808 1.04079.11159 1.06733-.11343.11342-3.75681.26237-4.63141.18922zm2.74187-18.77241c-.0815-.0115-.34829-.0453-.59282-.0756-1.81214-.22473-3.71958-1.11198-5.00679-2.32888l-.26407-.24967.39596-.39596.39598-.39599.33005.30243c.86239.79023 2.08499 1.43776 3.309 1.75255.83666.21519 1.18563.25662 2.14904.25512 1.25772-.002 2.07847-.16326 3.11313-.61207 1.07475-.46615 1.55852-.95095 1.72339-1.72714.042-.19712.0563-3.16285.0549-11.27787l-.002-11.0104.55635.0147.55636.0147.0129 11.00895c.0129 10.59146.009 11.02612-.08 11.46172-.0509.24902-.16621.60409-.25647.78907-.54007 1.10764-2.12387 2.00918-4.14695 2.36055-.53718.0932-1.90087.16327-2.24782.11528zm16.4759-17.05231c-.75129-.49007-1.1892-1.49026-1.04019-2.37589.0517-.30657.32894-.98324.38152-.93069.0129.0129-.0232.11434-.08.22576-.0568.11124-.095.20239-.0853.20239.009 0 .22406-.25566.47589-.56813.25186-.31248.47239-.56814.49006-.56814.0851 0 .55311.36095.68451.52792.81404 1.03433.62893 2.76082-.36673 3.42031-.26156.1732-.28991.17743-.45988.0664zm-33.8584-7.33009c-.94214-.62407-1.25015-2.15211-.6292-3.12157.14526-.22671.12706-.10917-.0224.14618-.0692.11786-.11619.21429-.10457.21429.0115 0 .23697-.26623.50087-.59164l.47983-.59164.15298.0791c.26091.13495.65441.54657.79297.82958.21605.44117.29549.83443.26512 1.31206-.0346.54263-.13717.86518-.39509 1.24215-.19349.28274-.60868.63519-.74828.63519-.0331 0-.16455-.0692-.29212-.15352zm80.62151 145.72797c1.13115-.60699 3.71453-1.80634 6.09004-2.82735.49821-.21414.88335-.39685.85585-.406-.10504-.0349-1.95382.45701-2.92267.77776-1.5714.52026-2.52866.95943-3.51841 1.6142-.47797.31621-1.22774.98036-1.43444 1.27063l-.10849.15243.17174-.10446c.0945-.0574.48433-.27219.86645-.47724zm8.02488-20.26399c4.53045-.41205 10.36438-1.07179 13.90694-1.57269l.79047-.11182-1.85262-.0365c-2.56016-.0506-5.21132.0349-7.50927.24247-.85023.0767-2.40039.25875-2.5072.29437-.0402.0129-.0618.12411-.0618.31854v.29797h-.56814-.56813v-.22325c0-.20561-.009-.22139-.11124-.19954-.0612.0129-.36682.0699-.67929.12613-.5518.0996-2.02371.41025-2.75857.58225-.1994.0466-.36057.10147-.35818.1219.002.0205.003.10366.003.18526 0 .13845.0129.1482.18526.14802.10181-.00012 1.04117-.0779 2.08727-.17321zm43.73404-5.93595c-.034-.0129-.0895-.0129-.12356 0-.034.0129-.006.025.0618.025.068 0 .0957-.0115.0618-.025zm-56.72704-17.9431c0-.25303-.0706-.54539-.15775-.65269l-.0974-.11988.0254.1482c.0147.0815.0395.18511.057.23019.0217.0563-.00037.0922-.0706.11457-.13092.0416-.12963.114.006.25732.12944.13789.2384.148.2384.0224zm-62.2851-15.52754.17301-.57623-.25317-.0972c-.13917-.0534-.25655-.0943-.26071-.0907-.003.003.006.39553.0211.87102.0257.77312.0349.84367.0877.66696.0324-.10872.13678-.45693.23194-.77385zm-1.26594-17.9442c.0392-.94789.0619-1.73266.0508-1.74397-.0184-.0165-.72165.14285-.90718.20647-.043.0147-.0263.095.0583.28216.15923.35162.24242.79524.39687 2.11418.0715.61137.14212 1.14491.15683 1.18568.0165.0478.0526.003.0999-.12356.0531-.1436.0926-.66951.14451-1.92101zm-55.66077-.87026c.26939-.80157.66985-2.05763.88989-2.79127.22005-.73363.41056-1.36369.42334-1.40011.0129-.0364-.10503.064-.26173.22319-.64723.65738-1.46584 1.24066-2.32135 1.65406-.27851.13459-.50637.26046-.50637.27974 0 .14765.47868 1.91079.8515 3.13633l.25257.83022.0913-.23739c.0502-.13053.31159-.8932.58099-1.69477zm57.60818-.80701c.18885-.20225.56581-.55151.83765-.77614.27186-.22462.49428-.41321.49428-.41906 0-.006-.30569.10595-.6793.24835-.37361.14249-.84047.31069-1.03746.3739l-.35818.11492v.32863c0 .18073-.0147.5043-.032.71898l-.0319.39032.23173-.3061c.12742-.16841.38629-.47157.57514-.67381zm10.07625-5.85046c5.0565-2.86256 9.21427-7.8135 13.01665-15.49979 5.30579-10.7254 8.39005-22.40241 9.14072-34.60684.0834-1.35587.20245-5.87866.15776-5.995-.0165-.0414-.0715-.0978-.12356-.12577-.0926-.0496-.0947-.002-.0968 2.25697-.002 2.30496-.0471 3.66194-.18693 5.61764-.82757 11.57272-4.19092 22.85316-9.79542 32.85304-3.76535 6.71831-8.25341 12.07251-13.24001 15.79512-.48337.36084-.94434.7063-1.02434.7677-.19167.14709 1.42555-.65192 2.15174-1.06304zm53.81945-36.67736c-.0197-.0318-.55354-.63217-1.18646-1.33422-1.52772-1.69457-3.04883-3.43373-3.89205-4.44994-.37765-.45511-.69623-.82749-.70796-.82749-.0319 0 1.39072 2.77421 1.88747 3.68052 1.227 2.23859 1.40794 2.53627 1.57341 2.58858.36497.11528.83619.21747 1.3921.30171.724.10975.98306.12099.93349.0408zm14.2903 83.25136c-.26751-.0499-.49432-.0986-.50403-.10825-.009-.009.026-.28362.0793-.60871.23243-1.41683.46797-3.59644.59243-5.48199.0287-.43475.065-1.84644.0809-3.1371.059-4.8265-.2142-8.81939-1.17288-17.14285-.99339-8.62474-1.2346-11.05746-1.4573-14.69741-.10596-1.72965-.14947-5.94658-.077-7.43514.0579-1.19038.19842-3.07222.23197-3.10734.0239-.025 1.05946.0787 1.08986.10906.0129.0129-.0115.39758-.0518.85588-.15335 1.7134-.19061 3.03726-.16254 5.76454.0147 1.47222.0511 3.04358.08 3.49191.25961 4.03364.45778 6.0938 1.24036 12.89419.70323 6.11069.9714 8.73859 1.15708 11.338.42078 5.89078.3591 10.63349-.1953 15.02001-.18331 1.45084-.33314 2.34568-.39171 2.34052-.0289-.002-.27147-.0454-.53898-.0953zm-196.60705-148.159183c-3.62202-.231331-7.05502-.930138-9.49978-1.933721-.84757-.347915-1.96032-.926265-2.64178-1.373045-2.52993-1.658721-4.56853-4.210507-6.23795-7.808338-3.652458-7.871538-3.939329-17.213908-.78461-25.552592 2.59156-6.850131 7.5152-12.542002 14.06936-16.264631 3.51978-1.999157 7.40215-3.361542 11.39366-3.998221 2.68423-.42816 5.60653-.498323 8.32441-.199877 7.47767.821112 14.1658 4.539494 17.76541 9.877006 2.39232 3.547316 3.65673 7.897451 4.02506 13.847887.0374.603363.0487 1.556157.0313 2.593658-.041 2.409978-.14709 3.477301-.79961 8.037662-.76638 5.356175-.9022 6.932834-.85054 9.87285.0467 2.657201.17669 3.365076 1.43869 7.830989.36742 1.300314.68156 2.436271.6981 2.524379l.03.160138-.33756.03183c-.58336.05516-1.47455.03551-1.87706-.04114-.84315-.160874-1.61471-.471786-3.12714-1.260437-.9438-.492103-1.32925-.667917-1.85456-.845822-.32107-.108713-.41649-.116746-1.33388-.111586-1.51906.0092-2.72355.217012-5.38493.932908-1.82921.492046-2.90727.763046-5.31081 1.334972-6.17676 1.469738-8.99475 1.975873-12.79539 2.298116-.82016.06952-4.09995.100898-4.94032.04723zm4.21353-1.136968c2.63714-.157197 5.3967-.557676 8.68066-1.259644 2.53635-.542151 6.88098-1.578807 9.04077-2.157168 3.49157-.934999 4.60695-1.147518 6.35128-1.210217 1.31055-.04712 1.82371.08676 3.40581.889158 1.48822.754681 1.89128.946433 2.29725 1.092966.7495.270518 1.57597.412614 1.51777.260945-.0129-.03471-.26179-.905522-.55205-1.934916-1.0621-3.766611-1.2496-4.834525-1.29719-7.388357-.0539-2.896457.1173-4.875076.87901-10.152318.37256-2.581302.55365-4.03058.69753-5.582547.0417-.450794.0632-1.457202.0616-2.890081-.002-2.368334-.0638-3.303384-.34587-5.286122-.56473-3.969778-1.69731-7.193367-3.44189-9.796512-1.85291-2.764779-4.65138-5.154293-8.00132-6.832059-2.84833-1.426552-5.79565-2.266804-9.37769-2.67349-.61296-.06969-1.1897-.08715-2.89009-.08789-2.27596-.000901-2.81892.03475-4.56977.300285-6.61552 1.003191-12.84402 4.073126-17.63139 8.690228-5.91915 5.708622-9.24685 13.792619-9.24287 22.453686.002 4.933714 1.09576 9.646663 3.21909 13.874267 2.49297 4.963648 5.46531 7.402802 10.63745 8.72934 1.80521.463006 4.12851.821448 6.20009.956558.91442.05953 3.38874.06183 4.36174.0034zm196.01699-44.387352v-.568136h.32112.32113v.568136.568135h-.32113-.32112z" stroke-width="1.83863"/><g stroke-width=".94524"><path d="m352.59505 246.98252c-17.04183-5.93231-27.55259-15.36635-26.64265-23.91341.12907-1.21215-.90532-4.56527-2.29861-7.4514-1.39783-2.89554-2.96899-8.40312-3.50541-12.28814-.53469-3.87233-1.59602-11.64448-2.35851-17.27143-1.83311-13.52743-4.53885-18.45355-17.45267-31.77473-3.69046-3.80688-11.26714-17.83413-13.73894-25.436-2.27221-6.98797-1.64408-15.32924 1.39832-18.56767 2.39716-2.5517 4.60248-3.29213 25.0562-8.41267 23.18223-5.803607 33.86364-7.520603 46.78945-7.521177 13.90894-.000494 20.59648 1.456522 31.73717 6.915277 16.51473 8.09195 26.00211 22.60699 28.87365 44.17475 2.42126 18.18554-4.37381 51.50358-13.32986 65.3604-3.09162 4.78329-18.82045 21.29734-32.62971 34.25866-5.76566 5.41156-10.65384 5.84183-21.89843 1.92754z"/><path d="m355.11602 364.80988c-4.72337-2.81984-6.36589-4.84774-17.95958-22.17378-11.8365-17.68885-31.26799-52.35284-32.51657-58.00654-.4637-2.09982.0989-2.60546 5.84036-5.24922 9.46422-4.35795 11.13626-4.67674 21.94996-4.18513l9.92505.45121-8.68398.49403-8.68402.49402 14.1252 37.26737c7.76882 20.49707 15.84981 40.40982 17.95772 44.25057 5.12249 9.33343 4.73564 10.65128-1.95414 6.65747z" fill="#00624a"/><path d="m140.59988 412.0981c-.61563-5.36059-1.24593-10.70356-1.40067-11.87331-.15481-1.16974.0318-2.12679.41467-2.12679.38279 0 .93406-1.16974 1.225-2.59943.78005-3.8331 5.65785-10.70258 11.67717-16.44507 6.57926-6.27674 6.11098-5.74618 16.1255-18.27055 9.20921-11.51717 12.34272-14.04517 20.05258-16.17769 13.35573-3.69411 15.58748-4.62723 19.1328-7.99986 3.41338-3.24704 4.14526-3.51466 10.77687-3.94024 3.91311-.25112 7.60255-.9444 8.19871-1.54057 2.07636-2.07634 2.63438-1.06309 1.09487 1.98807-2.61444 5.18159-6.00754 8.1174-20.23904 17.5116-16.70056 11.024-31.07648 24.81753-41.59692 39.91181-9.63975 13.83073-19.23977 26.5354-22.00693 29.12395l-2.33529 2.18457z" fill="#00624a"/><path d="m352.59505 246.98252c-16.84846-5.865-26.78154-14.62162-26.78154-23.60961 0-1.51352-1.05593-5.05829-2.34648-7.87728-1.29057-2.81898-2.78461-8.29372-3.32006-12.16606-.53546-3.87233-1.55937-11.40665-2.27541-16.74289-1.84232-13.72996-4.86217-19.22546-18.01545-32.78409-3.29086-3.3923-10.90928-17.73237-13.25785-24.95518-2.27221-6.98797-1.64408-15.32924 1.39832-18.56767 2.41421-2.56982 4.86093-3.393 25.0562-8.42986 23.24684-5.797943 33.88091-7.503413 46.78945-7.503987 13.89079-.000494 20.60165 1.457981 31.66556 6.882507 16.60818 8.14286 26.06268 22.55682 28.93212 44.10886 2.43458 18.28594-4.33508 51.56271-13.31672 65.45906-3.18322 4.92498-20.36791 23.01064-32.18868 33.8762-6.33482 5.82289-10.89367 6.29432-22.33946 2.31z" fill="#00624a"/><path d="m353.18469 246.52643c-14.93633-5.27319-24.43466-12.70066-26.36014-20.61302-.54918-2.25662-2.06566-7.50583-3.36993-11.66488-1.30423-4.15907-3.23999-13.67179-4.30161-21.13937-2.80446-19.72685-4.55053-23.77792-15.5233-36.01501-4.51234-5.03224-7.79514-10.04612-11.64964-17.79265-4.8013-9.64935-5.40415-11.52392-5.72048-17.78862-.39489-7.81992.77154-10.68243 5.29783-13.00138 2.91683-1.4944 27.70377-7.93187 42.76328-11.106169 13.48255-2.841909 36.45896-3.106543 44.89897-.517133 31.86679 9.776842 45.50653 35.574252 39.65278 74.997112-1.82265 12.2749-5.21763 24.28022-9.30685 32.9108-2.3011 4.85656-5.91605 9.66214-13.58943 18.06518-10.48498 11.48204-22.07881 22.4758-26.00146 24.65568-3.2504 1.80635-9.99491 1.40843-16.79002-.99054z" fill="#000045"/><path d="m228.57537 215.17568c-13.60521-6.50165-26.05509-16.38991-31.51513-25.03081-5.44442-8.61617-1.22678-8.8121 9.65911-.4487 14.79096 11.36365 14.63012 11.28159 22.84676 11.65538 6.50837.29608 7.39471.55099 7.39471 2.1268 0 .98471.42539 1.79038.94523 1.79038.51989 0 .94525-.43969.94525-.97708 0-1.92799 5.72978-6.52769 9.34362-7.50078 10.98259-2.95731 22.6244-26.3068 24.35739-48.85259.4896-6.36934.31388-8.24407-.95397-10.17906-.85471-1.30451-1.57906-3.34385-1.60967-4.53189-.0494-1.92548-.17321-1.98681-1.1396-.56469-.91233 1.3426-1.33609.66873-2.67495-4.25358-1.65649-6.09016-4.41351-17.10794-5.45633-21.805-.53455-2.40783-1.06592-1.53074-4.595 7.58504-5.6901 14.69775-5.04695 14.11664-14.06156 12.70474-9.13893-1.43137-18.51947-3.72967-19.63563-4.81084-.46959-.45488 1.50645-5.17711 4.55623-10.88822 2.96202-5.54674 5.18693-10.28354 4.94423-10.52621-.24264-.24269-3.50852 3.20121-7.25744 7.6531-3.74888 4.45191-7.03795 8.09437-7.30896 8.09437-.27102 0-.22689-3.93456.098-8.7435.48365-7.15793.37721-8.421136-.58702-6.96596-4.04423 6.10358-9.41548 12.98567-9.81955 12.58161-.26171-.26171-.0218-2.11083.53303-4.10915 1.68217-6.05798 1.26516-6.60263-2.38092-3.10977-4.96478 4.75618-11.01437 13.55803-15.11219 21.98745-3.68754 7.58552-8.53015 12.93559-11.70864 12.93559-1.54139 0-1.72294.50622-1.27139 3.54465.28973 1.94957 1.13596 4.52071 1.88049 5.71364 1.4065 2.25355 5.55519 4.34985 6.92869 3.50099 2.59556-1.60415 2.98645 26.19612.51913 36.91849-1.30035 5.65082-1.97366 6.92856-4.40923 8.36727-4.02714 2.37889-10.06039 1.34465-15.25107-2.61443-7.98332-6.08905-10.41172-14.29446-10.39032-35.10791.0165-16.18928 2.08619-25.93933 8.21717-38.71348 11.50884-23.979098 25.44918-38.171269 43.68144-44.47055 8.1397-2.812288 20.45405-4.511197 26.97293-3.72125 12.41651 1.504602 23.95583 6.003812 26.21241 10.220294.60761 1.135244 2.36248 2.620829 3.89978 3.30133 3.09653 1.370643 9.12098 9.244899 12.70967 16.612146 3.43772 7.05732 4.64474 17.73002 3.31566 29.31692-.59903 5.22225-4.24912 22.04307-8.11124 37.37963-7.68957 30.53509-10.81311 38.61418-16.34494 42.27654-3.15851 2.0911-9.21837 3.77484-10.16802 2.8252-.27323-.27323.62804-2.27859 2.0028-4.45635 2.81711-4.4626 2.62034-5.5465-.62689-3.45381-1.21487.78291-3.80392 1.71495-5.75348 2.07121-3.4592.63212-3.54467.74775-3.54467 4.79613 0 2.2816-.31903 4.1397-.70895 4.12909-.38989-.0115-4.69506-1.92419-9.56699-4.25238z" fill="#000045"/></g></svg>